<svg width="120" height="120" viewBox="0 0 120 120" fill="none" xmlns="http://www.w3.org/2000/svg">
<rect width="120" height="120" rx="24" fill="#EC4021"/>
<path d="M49.9226 20.6331C56.1585 17.1223 63.8415 17.1223 70.0774 20.6331L89.9226 31.8061C96.1585 35.3169 100 41.8053 100 48.827V71.1729C100 78.1947 96.1585 84.683 89.9226 88.1939L70.0774 99.3669C63.8415 102.878 56.1585 102.878 49.9226 99.3669L30.0774 88.1939C23.8415 84.683 20 78.1947 20 71.1729V48.827C20 41.8053 23.8415 35.3169 30.0774 31.8061L49.9226 20.6331ZM65.1437 33.151C62.0257 31.3956 58.1842 31.3956 55.0663 33.151L38.6891 42.3715C35.5711 44.1269 33.6504 47.3711 33.6504 50.8819V69.3228C33.6504 72.8336 35.5711 76.0778 38.6891 77.8333L55.0663 87.0537C58.1842 88.8091 62.0257 88.8091 65.1437 87.0537L81.5209 77.8333C84.6388 76.0778 86.5596 72.8336 86.5596 69.3228V50.8819C86.5596 47.3711 84.6388 44.1269 81.5209 42.3715L65.1437 33.151Z" fill="white"/>
</svg>
