<svg viewBox="0 0 24 24" fill="none" xmlns="http://www.w3.org/2000/svg">
<path d="M9.89171 5.0581C11.1135 4.3527 12.6189 4.3527 13.8407 5.0581L16.8918 6.81971C18.1136 7.52511 18.8662 8.82875 18.8662 10.2395V13.7626C18.8662 15.1733 18.1136 16.477 16.8918 17.1824L13.8407 18.944C12.6189 19.6494 11.1135 19.6494 9.89171 18.944L6.84061 17.1824C5.61887 16.477 4.86621 15.1733 4.86621 13.7626V10.2395C4.86621 8.82876 5.61884 7.52512 6.84061 6.81971L9.89171 5.0581ZM12.8729 6.79153C12.262 6.43888 11.5093 6.43887 10.8985 6.79153L7.85001 8.55172C7.23913 8.90443 6.86271 9.55625 6.86271 10.2616V13.7816C6.86271 14.487 7.23912 15.1388 7.85001 15.4915L10.8985 17.2515C11.5094 17.6042 12.262 17.6042 12.8729 17.2515L15.9213 15.4915C16.5322 15.1388 16.9086 14.487 16.9086 13.7816V10.2616C16.9086 9.55624 16.5322 8.90442 15.9213 8.55172L12.8729 6.79153Z" fill="currentColor"/>
</svg>
