<svg viewBox="0 0 24 24" fill="none" xmlns="http://www.w3.org/2000/svg">
<path d="M9.37891 6C9.90926 6.00006 10.4179 6.21092 10.793 6.58594L11.707 7.5H16.5C17.6046 7.5 18.5 8.39543 18.5 9.5V15C18.5 16.1046 17.6046 17 16.5 17H7.5C6.39543 17 5.5 16.1046 5.5 15V8C5.5 6.89543 6.39543 6 7.5 6H9.37891ZM10.793 9.41406C10.4179 9.78908 9.90926 9.99994 9.37891 10H6.5V15C6.5 15.5523 6.94772 16 7.5 16H16.5C17.0523 16 17.5 15.5523 17.5 15V9.5C17.5 8.94772 17.0523 8.5 16.5 8.5H11.707L10.793 9.41406ZM7.5 7C6.94772 7 6.5 7.44772 6.5 8V9H9.37891C9.64404 8.99994 9.89845 8.89451 10.0859 8.70703L10.793 8L10.0859 7.29297C9.89845 7.10549 9.64404 7.00006 9.37891 7H7.5Z" fill="currentColor"/>
</svg>
