<svg width="3950" height="1000" viewBox="0 0 3950 1000" fill="none" xmlns="http://www.w3.org/2000/svg">
<path d="M1309.81 780.68H1417.27V532.224H1676.62V438.809H1417.27V312.848H1724.34V218.528H1309.81V780.68Z" fill="white"/>
<path d="M1806.29 312.823H2000.2V780.655H2107.66V312.823H2301.57V218.503H1806.29V312.823Z" fill="white"/>
<path d="M2726.88 500.407L2528.93 220.311L2527.57 218.503H2434.97V780.655H2542.43V408.046L2585.96 475.848L2722.53 671.418L2726.13 676.541L2864.81 476.601C2883.87 449.481 2899.18 426.428 2910.43 408.046V780.504H3017.89V218.503H2925.29L2726.88 500.407Z" fill="white"/>
<path d="M3674.28 294.152C3618.3 238.404 3547.62 210.078 3464.17 210.078C3380.58 210.078 3309.89 238.404 3253.91 294.152C3198.08 350.051 3169.71 419.058 3169.71 499.667C3169.71 580.728 3198.08 650.187 3253.91 706.086C3309.74 761.834 3380.58 790.16 3464.17 790.16C3547.77 790.16 3618.45 761.834 3674.28 706.086C3730.11 650.337 3758.48 580.878 3758.48 499.667C3758.48 419.058 3730.11 349.9 3674.28 294.152ZM3594.44 635.27C3559.77 672.637 3516.25 691.47 3465.07 691.47C3413.29 691.47 3369.32 672.486 3334.35 635.27C3299.38 597.904 3281.52 552.251 3281.52 499.516C3281.52 446.932 3299.23 401.43 3334.35 364.214C3369.32 327.149 3413.29 308.315 3465.07 308.315C3516.25 308.315 3559.77 327.149 3594.59 364.063C3629.41 401.128 3646.97 446.631 3646.97 499.366C3646.82 552.251 3629.11 597.904 3594.44 635.27Z" fill="white"/>
<path d="M117.066 617.598L497.981 235.197V0L0 500.075L117.066 617.598Z" fill="white"/>
<path d="M498.028 999.987V674.388L335.936 837.263L498.028 999.987Z" fill="white"/>
<path d="M497.943 334.323L166.405 667.154L286.323 787.54L497.943 575.095V334.323Z" fill="white"/>
<path d="M560.322 0V235.197L824.021 499.925L560.322 764.803V1000L1058.3 499.925L560.322 0Z" fill="white"/>
<path d="M3852.75 18.1377C3798.27 18.1377 3754.89 60.6268 3754.89 113.512C3754.89 167.603 3798.27 209.941 3852.75 209.941C3907.68 209.941 3950 167.452 3950 113.512C3950 60.4761 3907.83 18.1377 3852.75 18.1377ZM3853.35 189.601C3810.57 189.601 3779.2 155.851 3779.2 113.512C3779.2 71.6257 3810.42 37.4235 3852.75 37.4235C3895.07 37.4235 3925.69 71.7764 3925.69 114.115C3925.69 155.851 3895.07 189.601 3853.35 189.601Z" fill="white"/>
<path d="M3874.77 116.241V115.035C3886.32 111.57 3894.43 103.434 3894.43 92.8867C3894.43 83.5452 3890.38 76.0116 3885.12 71.9435C3878.22 67.8754 3870.11 65.0127 3852.1 65.0127C3836.49 65.0127 3824.34 66.2181 3815.63 67.8754V163.25H3837.7V124.829H3848.05C3860.21 124.829 3866.06 129.5 3867.71 139.896C3870.56 150.895 3872.37 159.634 3875.22 163.099H3898.93C3896.68 159.634 3894.88 153.758 3892.03 139.293C3889.17 126.637 3884.07 119.706 3874.77 116.241ZM3848.65 109.159H3838.3V81.8878C3840.55 81.2851 3844.75 80.6824 3850.45 80.6824C3864.41 80.6824 3870.71 86.5586 3870.71 95.1468C3870.71 105.091 3860.81 109.159 3848.65 109.159Z" fill="white"/>
</svg>
