<?xml version="1.0" encoding="UTF-8"?>
<svg id="Layer_2" data-name="Layer 2" xmlns="http://www.w3.org/2000/svg" viewBox="0 0 600 100">
  <defs>
    <style>
      .cls-1 {
        fill: #fff;
      }

      .cls-2 {
        fill: #ff4200;
      }
    </style>
  </defs>
  <g id="Ecosystem">
    <g id="NinjaTrader_NTE_Color_Reverse-600x100">
      <g id="NinjaTrader">
        <path class="cls-1" d="m297.32,24.44h11c4.84,0,8.45-3.4,8.45-7.9s-3.61-7.52-8.45-7.52h-11v15.42h0Zm5.16,9.01h-5.16v20.02h-11.49V0h23.55c12.97,0,18.87,7.06,18.87,16.69,0,7.94-5.25,13.78-13.79,15.92l14.11,20.86h-13.21l-12.89-20.02h0Zm221.01-9.01h11c4.84,0,8.45-3.4,8.45-7.9s-3.61-7.52-8.45-7.52h-11v15.42h0Zm5.16,9.01h-5.16v20.02h-11.49V0h23.55c12.97,0,18.87,7.06,18.87,16.69,0,7.94-5.25,13.78-13.79,15.92l14.11,20.86h-13.21l-12.89-20.02h0Zm-56.5,10.24v-12.91h24.86v-9.62h-24.86v-11.38h26.09V0h-37.58v53.47h37.99v-9.78h-26.51Zm-32.3-17.03c0-10.08-7.47-16.88-19.45-16.88h-10.01v33.91h10.01c11.98,0,19.45-7.03,19.45-17.03h0Zm11.65,0c0,15.28-12.72,26.81-31.1,26.81h-21.5V0h21.5c18.38,0,31.1,11.38,31.1,26.66h0ZM231.01,0v9.78h16.41v43.69h11.49V9.78h16.41V0h-44.31Zm140.33,32.92l-7.47-20.85-7.63,20.85h15.1ZM356.73,0h14.44l19.86,53.47h-12.15l-7.46-20.01-5.33,9.24h-13.54l-4.11,10.77h-12.14L356.73,0h0Zm-144.77,32.92l-7.47-20.85-7.63,20.85h15.1ZM197.35,0h14.44l19.86,53.47h-12.15l-7.46-20.01-5.33,9.24h-13.54l-4.11,10.77h-12.14L197.35,0h0Zm-41.15,70.08l11.83-6.83V0h-11.83v70.08h0Zm-118.94-28.91L16.08,0H0v53.47h11.49V12.3l21.17,41.17h16.08V0h-11.49v41.17h0Zm93.13,0L109.22,0h-16.08v53.47h11.49V12.3l21.17,41.17h16.08V0h-11.49v41.17h0ZM65.42,0h11.49v53.47h-11.49V0h0Z"/>
      </g>
      <g id="Ecosystem-2" data-name="Ecosystem">
        <polygon class="cls-2" points="291.11 95 291.11 83.09 309.59 83.09 309.59 78.62 291.11 78.62 291.11 67.3 311.85 67.3 311.85 62.71 285.85 62.71 285.85 99.58 312.59 99.58 312.59 95 291.11 95"/>
        <path class="cls-2" d="m335.43,100c-2.81,0-5.4-.47-7.76-1.4-2.37-.93-4.42-2.25-6.16-3.95-1.74-1.7-3.1-3.69-4.08-5.98-.98-2.28-1.47-4.79-1.47-7.53s.49-5.25,1.47-7.53c.98-2.28,2.35-4.27,4.11-5.98,1.75-1.7,3.82-3.02,6.19-3.95,2.37-.93,4.96-1.4,7.76-1.4s5.47.48,7.87,1.45c2.4.97,4.45,2.4,6.13,4.29l-3.42,3.32c-1.4-1.47-2.98-2.57-4.74-3.29-1.76-.72-3.63-1.08-5.63-1.08s-3.99.35-5.76,1.05c-1.77.7-3.31,1.69-4.61,2.95-1.3,1.26-2.31,2.76-3.03,4.5-.72,1.74-1.08,3.63-1.08,5.66s.36,3.92,1.08,5.66c.72,1.74,1.73,3.24,3.03,4.5,1.3,1.26,2.83,2.25,4.61,2.95,1.77.7,3.69,1.05,5.76,1.05s3.88-.36,5.63-1.08c1.75-.72,3.33-1.83,4.74-3.34l3.42,3.32c-1.68,1.9-3.73,3.34-6.13,4.32-2.4.98-5.05,1.47-7.92,1.47Z"/>
        <path class="cls-2" d="m371.81,100c-2.81,0-5.41-.47-7.82-1.42-2.4-.95-4.48-2.27-6.24-3.98-1.76-1.7-3.12-3.69-4.11-5.98-.98-2.28-1.47-4.77-1.47-7.48s.49-5.2,1.47-7.48c.98-2.28,2.35-4.27,4.11-5.98,1.75-1.7,3.82-3.03,6.21-3.98,2.39-.95,5-1.42,7.84-1.42s5.4.47,7.76,1.4c2.37.93,4.44,2.25,6.21,3.95,1.77,1.7,3.14,3.7,4.11,5.98.97,2.28,1.45,4.79,1.45,7.53s-.48,5.25-1.45,7.53c-.97,2.28-2.33,4.28-4.11,5.98-1.77,1.7-3.84,3.02-6.21,3.95-2.37.93-4.96,1.4-7.76,1.4Zm0-4.69c2.03,0,3.92-.35,5.66-1.05,1.74-.7,3.25-1.69,4.53-2.98,1.28-1.28,2.28-2.78,3-4.5.72-1.72,1.08-3.6,1.08-5.64s-.36-3.92-1.08-5.64c-.72-1.72-1.72-3.22-3-4.5-1.28-1.28-2.79-2.27-4.53-2.98-1.74-.7-3.62-1.05-5.66-1.05s-3.97.35-5.71,1.05c-1.74.7-3.26,1.69-4.55,2.98-1.3,1.28-2.31,2.78-3.03,4.5-.72,1.72-1.08,3.6-1.08,5.64s.36,3.92,1.08,5.64c.72,1.72,1.73,3.22,3.03,4.5,1.3,1.28,2.82,2.27,4.55,2.98,1.74.7,3.64,1.05,5.71,1.05Z"/>
        <path class="cls-2" d="m409.08,100c-2.81,0-5.49-.43-8.05-1.29-2.56-.86-4.58-1.97-6.05-3.34l1.95-4.11c1.4,1.23,3.19,2.25,5.37,3.05,2.18.81,4.44,1.21,6.79,1.21,2.14,0,3.88-.25,5.21-.74,1.33-.49,2.32-1.17,2.95-2.03s.95-1.83.95-2.92c0-1.26-.41-2.28-1.24-3.05-.82-.77-1.89-1.4-3.21-1.87-1.32-.47-2.76-.89-4.34-1.24-1.58-.35-3.17-.76-4.76-1.24-1.6-.47-3.05-1.08-4.37-1.82s-2.38-1.73-3.18-2.98c-.81-1.25-1.21-2.85-1.21-4.82s.5-3.64,1.5-5.24c1-1.6,2.54-2.88,4.63-3.84,2.09-.96,4.75-1.45,7.97-1.45,2.14,0,4.26.28,6.37.84,2.11.56,3.93,1.37,5.47,2.42l-1.74,4.21c-1.58-1.05-3.25-1.82-5-2.29-1.76-.47-3.46-.71-5.11-.71-2.07,0-3.77.26-5.11.79-1.33.53-2.31,1.23-2.92,2.11-.61.88-.92,1.86-.92,2.95,0,1.3.41,2.34,1.24,3.11.82.77,1.89,1.39,3.21,1.84,1.32.46,2.76.87,4.34,1.24,1.58.37,3.17.78,4.76,1.24,1.6.46,3.05,1.05,4.37,1.79,1.32.74,2.38,1.72,3.18,2.95.81,1.23,1.21,2.81,1.21,4.74s-.51,3.59-1.53,5.19c-1.02,1.6-2.59,2.88-4.71,3.84-2.12.97-4.8,1.45-8.03,1.45Z"/>
        <path class="cls-2" d="m441.24,99.58v-12.84l-14.63-24.03h5.63l11.79,19.45,11.84-19.45h5.21l-14.63,24.11v12.76h-5.21Z"/>
        <path class="cls-2" d="m476.35,100c-2.81,0-5.49-.43-8.05-1.29-2.56-.86-4.58-1.97-6.05-3.34l1.95-4.11c1.4,1.23,3.19,2.25,5.37,3.05,2.18.81,4.44,1.21,6.79,1.21,2.14,0,3.88-.25,5.21-.74,1.33-.49,2.32-1.17,2.95-2.03s.95-1.83.95-2.92c0-1.26-.41-2.28-1.24-3.05-.82-.77-1.89-1.4-3.21-1.87-1.32-.47-2.76-.89-4.34-1.24-1.58-.35-3.17-.76-4.76-1.24-1.6-.47-3.05-1.08-4.37-1.82s-2.38-1.73-3.18-2.98c-.81-1.25-1.21-2.85-1.21-4.82s.5-3.64,1.5-5.24c1-1.6,2.54-2.88,4.63-3.84,2.09-.96,4.75-1.45,7.97-1.45,2.14,0,4.26.28,6.37.84,2.11.56,3.93,1.37,5.47,2.42l-1.74,4.21c-1.58-1.05-3.25-1.82-5-2.29-1.76-.47-3.46-.71-5.11-.71-2.07,0-3.77.26-5.11.79-1.33.53-2.31,1.23-2.92,2.11-.61.88-.92,1.86-.92,2.95,0,1.3.41,2.34,1.24,3.11.82.77,1.89,1.39,3.21,1.84,1.32.46,2.76.87,4.34,1.24,1.58.37,3.17.78,4.76,1.24,1.6.46,3.05,1.05,4.37,1.79,1.32.74,2.38,1.72,3.18,2.95.81,1.23,1.21,2.81,1.21,4.74s-.51,3.59-1.53,5.19c-1.02,1.6-2.59,2.88-4.71,3.84-2.12.97-4.8,1.45-8.03,1.45Z"/>
        <path class="cls-2" d="m505.09,99.58v-32.28h-12.63v-4.58h30.48v4.58h-12.63v32.28h-5.21Z"/>
        <polygon class="cls-2" points="533.94 95 533.94 83.09 552.41 83.09 552.41 78.62 533.94 78.62 533.94 67.3 554.68 67.3 554.68 62.71 528.67 62.71 528.67 99.58 555.41 99.58 555.41 95 533.94 95"/>
        <polygon class="cls-2" points="600 99.58 599.95 62.71 595.63 62.71 580.46 88.61 565.1 62.71 560.78 62.71 560.78 99.58 565.84 99.58 565.84 72.86 579.15 95.1 581.58 95.1 594.9 72.7 594.95 99.58 600 99.58"/>
      </g>
    </g>
  </g>
</svg>